<?xml version="1.0" encoding="utf-8"?>
<!-- Generator: Adobe Illustrator 28.0.0, SVG Export Plug-In . SVG Version: 6.00 Build 0)  -->
<svg version="1.1" id="Layer_1" xmlns="http://www.w3.org/2000/svg" xmlns:xlink="http://www.w3.org/1999/xlink" x="0px" y="0px"
	 viewBox="0 0 725 80" style="enable-background:new 0 0 725 80;" xml:space="preserve">
<style type="text/css">
	.st0{fill:#464646;}
</style>
<g>
	<g transform="translate(0 0)">
		<g id="icon-driving">
			<path class="st0" d="M29.9,13.5h-0.4l-4.6-8.3c-0.2-0.4-0.7-0.7-1.1-0.7H10c-0.4,0-0.9,0.3-1.1,0.7l-4.6,8.3H3.9
				c-0.8,0-1.5,0.7-1.5,1.5v7.4c0,0.8,0.7,1.5,1.5,1.5h1.5v2.2c0,1.2,1,2.2,2.2,2.2h0.7c1.2,0,2.2-1,2.2-2.2v-2.2h12.6v2.2
				c0,1.2,1,2.2,2.2,2.2h0.7c1.2,0,2.2-1,2.2-2.2v-2.2h1.5c0.8,0,1.5-0.7,1.5-1.5V15C31.4,14.2,30.7,13.5,29.9,13.5z M6.5,19.5
				c-1,0-1.9-0.8-1.9-1.9c0-1,0.8-1.9,1.9-1.9s1.9,0.8,1.9,1.9S7.5,19.5,6.5,19.5z M8,13.5l3-6c0.2-0.4,0.7-0.7,1.1-0.7h9.7
				c0.4,0,0.9,0.3,1.1,0.7l3,6H8z M27.3,19.5c-1,0-1.9-0.8-1.9-1.9c0-1,0.8-1.9,1.9-1.9s1.9,0.8,1.9,1.9S28.3,19.5,27.3,19.5z"/>
		</g>
	</g>
	<g transform="translate(48 0)">
		<g id="icon-email">
			<path class="st0" d="M49.9,5.1c-1.9,0-0.9,0.5,0,1.3L64,17.1L78.1,6.4c0.9-0.8,1.9-1.3,0-1.3L49.9,5.1L49.9,5.1z M48,7.6v15.8
				c0,0.9,1,2.1,1.7,2.1h28.6c0.8,0,1.7-1.2,1.7-2.1V7.6L64,19.9L48,7.6L48,7.6z"/>
		</g>
	</g>
	<g transform="translate(96 0)">
		<g id="icon-navigate">
			<path class="st0" d="M116.8,30.8l-4.5-13.5H97.6l28.3-15.9L116.8,30.8z"/>
		</g>
	</g>
	<g transform="translate(144 0)">
		<g id="icon-geolocation">
			<path class="st0" d="M160,0.6c-8.5,0-15.4,6.9-15.4,15.4s6.9,15.4,15.4,15.4c8.5,0,15.4-6.9,15.4-15.4S168.5,0.6,160,0.6z
				 M161.9,28.6V23h-3.8v5.6c-5.5-0.8-9.9-5.2-10.7-10.7h5.6v-3.8h-5.6c0.8-5.5,5.2-9.9,10.7-10.7V9h3.8V3.4
				c5.5,0.8,9.9,5.2,10.7,10.7H167v3.8h5.6C171.8,23.4,167.4,27.8,161.9,28.6z"/>
		</g>
	</g>
	<g transform="translate(192 0)">
		<g id="icon-flag">
			<path class="st0" d="M199.3,0.6c-0.9,0-1.6,0.7-1.6,1.6v27.5c0,0.8,0.8,1.6,1.6,1.6s1.6-0.8,1.6-1.6V13.2
				c0.5-0.2,1.1-0.4,1.6-0.4c3.2,0,7.8,4,11,4c1.4,0,3.3-0.6,4.7-1.6V3.9c-1.6,1.2-3.1,2.4-4.7,2.4c-3.2,0-7.9-4-11-4
				c-0.5,0-1.1,0.1-1.6,0.2V2.3C200.9,1.4,200.2,0.6,199.3,0.6z"/>
		</g>
	</g>
	<g transform="translate(240 0)">
		<g id="icon-transit">
			<path class="st0" d="M266.3,16h-20.5c-0.6,0-1.1-0.5-1.1-1.1c0-0.1,0-0.2,0-0.3l1.1-7.6c0.1-0.5,0.5-0.6,1.1-0.6h18.3
				c0.5,0,1,0.1,1.1,0.6l1.1,7.8c0,0.1,0,0.1,0,0.2C267.4,15.6,266.9,16,266.3,16z M265.5,24.5c-1.2,0-2.1-0.9-2.1-2
				c0-1.1,0.9-2,2.1-2c1.1,0,2.1,0.9,2.1,2C267.6,23.6,266.7,24.5,265.5,24.5z M246.6,24.5c-1.1,0-2.1-0.9-2.1-2c0-1.1,0.9-2,2.1-2
				c1.2,0,2.1,0.9,2.1,2C248.7,23.6,247.8,24.5,246.6,24.5z M250.2,1.9H263v1.9h-12.8C249,3.8,249,1.9,250.2,1.9z M268.3,4.9
				c-0.4-1.8-1.5-2.5-3.2-3.2c-1.8-0.7-5.9-1.6-9-1.6c-3.1,0-7.3,0.9-9,1.6c-1.8,0.7-2.9,1.5-3.2,3.2l-1.2,10v13.9h1.9v1.3
				c0,2.6,3.2,2.6,3.2,0v-1.3h16v1.3c0,2.6,3.8,2.6,3.8,0v-1.3h1.9V14.9L268.3,4.9L268.3,4.9z"/>
		</g>
	</g>
	<g transform="translate(290 0)">
		<g id="icon-walking">
			<path class="st0" d="M305.3,6c1.3,0,2.3-1.1,2.3-2.4c0-1.3-1.1-2.4-2.4-2.3c-1.3,0-2.3,1.1-2.3,2.4C302.9,5,304,6.1,305.3,6
				L305.3,6z M313.2,13.9l-3.4-1.9l-2.8-4.5c-0.5-0.6-1.2-1-2-1c-0.6,0-1.1,0.3-1.6,0.7l-4.3,4.3c-0.1,0.1-0.2,0.3-0.3,0.6l-0.5,4.8
				c0,0.1,0,0.1,0,0.1c0,0.6,0.5,1.1,1.1,1c0.5,0,1-0.5,1-1l0.4-4.1l1.5-1.5L301,23l-2.5,5.4c-0.1,0.2-0.1,0.5-0.1,0.7
				c0,0.9,0.7,1.6,1.6,1.6c0.6,0,1.1-0.4,1.4-0.9l2.6-5.9c0.1-0.2,0.2-0.5,0.2-0.7l0.3-2.8l2.7,9.2c0.2,0.6,0.8,1.1,1.5,1.1
				c0.9,0,1.6-0.8,1.5-1.6c0-0.1,0-0.2,0-0.3l-3.8-12.8l0.5-4.2l1.1,1.7c0.1,0.1,0.2,0.2,0.3,0.3l3.7,2.1c0.2,0.1,0.3,0.1,0.5,0.1
				c0.6,0,1-0.5,1-1.1C313.7,14.5,313.5,14.1,313.2,13.9L313.2,13.9z"/>
		</g>
	</g>
	<g transform="translate(338 0)">
		<g id="icon-bicycling">
			<path class="st0" d="M345.2,27.6c2.7,0,4.9-2.2,4.9-5c0-2.8-2.2-5-4.9-5c-2.7,0-4.9,2.2-4.9,5C340.4,25.4,342.6,27.6,345.2,27.6z
				 M339.3,22.6c0-3.4,2.7-6.1,6-6.1c3.3,0,6,2.7,6,6.1c0,3.4-2.7,6.1-6,6.1C342,28.7,339.3,26,339.3,22.6z M362.8,27.7
				c2.7,0,4.8-2.2,4.8-5c0-2.8-2.2-5-4.8-5c-2.7,0-4.9,2.2-4.9,5C357.9,25.4,360.1,27.7,362.8,27.7z M356.8,22.7
				c0-3.4,2.7-6.1,6-6.1c3.3,0,6,2.7,6,6.1c0,3.4-2.7,6.1-6,6.1C359.5,28.8,356.8,26.1,356.8,22.7L356.8,22.7z M356.8,7.8
				c1.2,0,2.2-1,2.2-2.3s-1-2.3-2.2-2.3c-1.2,0-2.2,1-2.2,2.3S355.6,7.8,356.8,7.8z M356.9,13.4c-0.3,0-0.7-0.2-0.9-0.6l-1.5-2.4
				l-3,3l2.8,1.5c1.1,0.6,1,1.6,1,1.6v6.5c0,0.7-0.6,1.3-1.3,1.3s-1.3-0.6-1.3-1.3v-5.2l-4.8-2.7c-0.6-0.3-1-1-1-1.7
				c0-0.5,0.2-0.9,0.5-1.3l4.7-4.9c0.6-0.7,1.4-0.6,1.4-0.6c1,0,1.5,0.9,1.5,0.9l2.4,4l3.6,0c1.3,0,1.3,1.9,0,1.9L356.9,13.4
				L356.9,13.4z"/>
		</g>
	</g>
	<g transform="translate(386 0)">
		<g id="icon-cross">
			<path class="st0" d="M411.3,5.3c0.4,0,0.7,0.1,1,0.4c0.3,0.3,0.4,0.6,0.4,1c0,0.4-0.1,0.7-0.4,0.9l-8.4,8.4l8.4,8.4
				c0.3,0.3,0.4,0.6,0.4,0.9c0,0.4-0.1,0.7-0.4,1c-0.3,0.3-0.6,0.4-1,0.4c-0.4,0-0.7-0.1-0.9-0.4l-8.4-8.4l-8.4,8.4
				c-0.3,0.3-0.6,0.4-0.9,0.4c-0.4,0-0.7-0.1-1-0.4c-0.3-0.3-0.4-0.6-0.4-1c0-0.4,0.1-0.7,0.4-0.9l8.4-8.4l-8.4-8.4
				c-0.3-0.3-0.4-0.6-0.4-0.9c0-0.4,0.1-0.7,0.4-1c0.3-0.3,0.6-0.4,1-0.4c0.4,0,0.7,0.1,0.9,0.4l8.4,8.4l8.4-8.4
				C410.6,5.5,411,5.3,411.3,5.3z"/>
		</g>
	</g>
	<g transform="translate(434 0)">
		<g id="icon-menu">
			<path class="st0" d="M438,6.7h24c0.4,0,0.7,0.1,0.9,0.4c0.3,0.3,0.4,0.6,0.4,0.9s-0.1,0.7-0.4,0.9c-0.3,0.3-0.6,0.4-0.9,0.4h-24
				c-0.4,0-0.7-0.1-0.9-0.4c-0.3-0.3-0.4-0.6-0.4-0.9s0.1-0.7,0.4-0.9C437.3,6.8,437.6,6.7,438,6.7z M438,22.7h24
				c0.4,0,0.7,0.1,0.9,0.4c0.3,0.3,0.4,0.6,0.4,0.9s-0.1,0.7-0.4,0.9c-0.3,0.3-0.6,0.4-0.9,0.4h-24c-0.4,0-0.7-0.1-0.9-0.4
				c-0.3-0.3-0.4-0.6-0.4-0.9s0.1-0.7,0.4-0.9C437.3,22.8,437.6,22.7,438,22.7z M438,14.7h24c0.4,0,0.7,0.1,0.9,0.4
				c0.3,0.3,0.4,0.6,0.4,0.9s-0.1,0.7-0.4,0.9c-0.3,0.3-0.6,0.4-0.9,0.4h-24c-0.4,0-0.7-0.1-0.9-0.4c-0.3-0.3-0.4-0.6-0.4-0.9
				s0.1-0.7,0.4-0.9C437.3,14.8,437.6,14.7,438,14.7z"/>
		</g>
	</g>
	<g transform="translate(482 0)">
		<g id="icon-twitter">
			<path class="st0" d="M510.9,7.3c-0.8,1.2-1.8,2.2-2.9,3c0,0.2,0,0.4,0,0.8c0,1.5-0.2,3.1-0.7,4.6s-1.1,3-2.1,4.4
				c-0.9,1.4-2,2.7-3.3,3.8c-1.3,1.1-2.8,2-4.6,2.6s-3.7,1-5.8,1c-3.2,0-6.2-0.9-8.9-2.6c0.4,0,0.9,0.1,1.4,0.1
				c2.7,0,5.1-0.8,7.2-2.5c-1.2,0-2.4-0.4-3.4-1.2c-1-0.7-1.7-1.7-2-2.8c0.4,0.1,0.8,0.1,1.1,0.1c0.5,0,1-0.1,1.5-0.2
				c-1.3-0.3-2.4-0.9-3.3-2s-1.3-2.3-1.3-3.7v-0.1c0.8,0.5,1.7,0.7,2.6,0.7c-0.8-0.5-1.4-1.2-1.9-2.1S484,9.5,484,8.5
				c0-1,0.3-2,0.8-2.9c1.4,1.8,3.2,3.2,5.3,4.3s4.3,1.7,6.6,1.8c-0.1-0.5-0.1-0.9-0.1-1.3c0-1.6,0.6-3,1.7-4.1s2.5-1.7,4.1-1.7
				c1.7,0,3.1,0.6,4.2,1.8c1.3-0.2,2.5-0.7,3.7-1.4c-0.4,1.4-1.3,2.4-2.5,3.2C508.7,8.1,509.8,7.8,510.9,7.3L510.9,7.3z"/>
		</g>
	</g>
	<g transform="translate(528 0)">
		<g id="icon-facebook">
			<path class="st0" d="M537.1,9.9h4.6l-0.5,5.1h-4.1v14.7H531V15h-3V9.9h3V6.9c0-2.2,0.5-3.8,1.5-4.9s2.7-1.7,5.1-1.7h4.1v5.1h-2.5
				c-0.5,0-0.8,0-1.1,0.1c-0.3,0.1-0.5,0.2-0.6,0.4c-0.1,0.2-0.2,0.4-0.2,0.6s-0.1,0.5-0.1,0.9V9.9L537.1,9.9z"/>
		</g>
	</g>
	<g transform="translate(558 0)">
		<g id="icon-github">
			<path class="st0" d="M585.4,16c0,3-0.9,5.7-2.6,8.1c-1.7,2.4-4,4-6.8,5c-0.3,0.1-0.6,0-0.7-0.1c-0.1-0.1-0.2-0.3-0.2-0.5v-3.8
				c0-1.2-0.3-2-0.9-2.5c0.7-0.1,1.3-0.2,1.8-0.3c0.5-0.1,1.1-0.4,1.7-0.7s1.1-0.7,1.4-1.2c0.4-0.5,0.7-1.1,0.9-1.9
				c0.2-0.8,0.4-1.7,0.4-2.7c0-1.4-0.5-2.7-1.4-3.7c0.4-1.1,0.4-2.3-0.1-3.6c-0.3-0.1-0.8,0-1.4,0.2c-0.6,0.2-1.2,0.5-1.6,0.8
				l-0.7,0.4c-1.1-0.3-2.3-0.5-3.4-0.5s-2.3,0.2-3.4,0.5c-0.2-0.1-0.4-0.3-0.8-0.5c-0.3-0.2-0.8-0.4-1.5-0.7s-1.2-0.3-1.5-0.2
				c-0.5,1.3-0.6,2.6-0.1,3.6c-0.9,1-1.4,2.2-1.4,3.7c0,1,0.1,1.9,0.4,2.7s0.6,1.4,0.9,1.9s0.9,0.9,1.4,1.2c0.6,0.3,1.1,0.6,1.7,0.7
				s1.2,0.2,1.8,0.3c-0.5,0.4-0.8,1-0.9,1.8c-0.2,0.1-0.5,0.2-0.8,0.3c-0.3,0.1-0.6,0.1-1,0.1c-0.4,0-0.8-0.1-1.2-0.4
				c-0.4-0.3-0.7-0.6-1-1.1c-0.2-0.4-0.5-0.7-0.9-0.9c-0.4-0.2-0.6-0.4-0.9-0.4l-0.4-0.1c-0.2,0-0.4,0-0.5,0.1s-0.1,0.1-0.1,0.2
				c0,0.1,0.1,0.2,0.2,0.2c0.1,0.1,0.1,0.2,0.2,0.2l0.1,0.1c0.3,0.1,0.5,0.3,0.8,0.7c0.3,0.3,0.4,0.6,0.6,0.9l0.2,0.4
				c0.2,0.5,0.4,0.8,0.8,1.1c0.4,0.3,0.8,0.5,1.2,0.5c0.4,0.1,0.8,0.1,1.2,0.1s0.7,0,1-0.1l0.4-0.1c0,0.5,0,1,0,1.6s0,0.9,0,1
				c0,0.2-0.1,0.4-0.2,0.5s-0.4,0.2-0.7,0.1c-2.8-0.9-5-2.6-6.8-5c-1.7-2.4-2.6-5.1-2.6-8.1c0-2.5,0.6-4.8,1.8-6.9s2.9-3.8,5-5
				c2.1-1.2,4.4-1.8,6.9-1.8c2.5,0,4.8,0.6,6.9,1.8c2.1,1.2,3.8,2.9,5,5S585.4,13.5,585.4,16L585.4,16z"/>
		</g>
	</g>
	<g transform="translate(606 0)">
		<g id="icon-rss">
			<path class="st0" d="M612.9,24c0,1-0.3,1.8-1,2.4s-1.5,1-2.4,1c-1,0-1.8-0.3-2.4-1c-0.7-0.7-1-1.5-1-2.4s0.3-1.8,1-2.4
				c0.7-0.7,1.5-1,2.4-1c1,0,1.8,0.3,2.4,1S612.9,23,612.9,24z M622,26.2c0,0.3-0.1,0.6-0.3,0.9c-0.2,0.2-0.5,0.4-0.8,0.4h-2.4
				c-0.3,0-0.6-0.1-0.8-0.3s-0.3-0.4-0.4-0.7c-0.3-2.7-1.4-5.1-3.3-7s-4.3-3-7-3.3c-0.3,0-0.5-0.1-0.7-0.4S606,15.3,606,15v-2.4
				c0-0.3,0.1-0.6,0.4-0.8c0.2-0.2,0.5-0.3,0.8-0.3h0.1c1.9,0.2,3.7,0.6,5.5,1.4c1.7,0.8,3.3,1.9,4.6,3.2c1.4,1.3,2.4,2.9,3.2,4.6
				C621.4,22.5,621.8,24.3,622,26.2L622,26.2z M631.1,26.2c0,0.3-0.1,0.6-0.3,0.8c-0.2,0.2-0.5,0.4-0.8,0.4h-2.6
				c-0.3,0-0.6-0.1-0.8-0.3c-0.2-0.2-0.3-0.5-0.3-0.8c-0.1-2.6-0.7-5-1.8-7.3s-2.4-4.3-4.1-6c-1.7-1.7-3.7-3.1-6-4.1
				c-2.3-1.1-4.7-1.7-7.3-1.8c-0.3,0-0.6-0.1-0.8-0.3C606.1,6.5,606,6.3,606,6V3.4c0-0.3,0.1-0.6,0.4-0.8c0.2-0.2,0.5-0.3,0.8-0.3
				h0.1c3.1,0.2,6.1,0.9,9,2.1s5.4,3,7.6,5.2c2.2,2.2,4,4.7,5.2,7.6C630.3,20.1,631,23.1,631.1,26.2L631.1,26.2z"/>
		</g>
	</g>
	<g transform="translate(647 0)">
		<g id="icon-site">
			<path class="st0" d="M673,21.7c0-0.5-0.2-0.9-0.5-1.2l-3.7-3.7c-0.3-0.3-0.7-0.5-1.2-0.5c-0.5,0-0.9,0.2-1.3,0.6
				c0,0,0.1,0.1,0.3,0.3c0.2,0.2,0.3,0.3,0.4,0.4c0.1,0.1,0.2,0.2,0.3,0.3s0.2,0.3,0.2,0.5c0,0.1,0.1,0.3,0.1,0.5
				c0,0.5-0.2,0.9-0.5,1.2c-0.3,0.3-0.7,0.5-1.2,0.5c-0.2,0-0.3,0-0.5-0.1s-0.3-0.1-0.5-0.2s-0.3-0.2-0.3-0.3s-0.2-0.2-0.4-0.4
				c-0.2-0.2-0.3-0.3-0.3-0.3c-0.4,0.4-0.6,0.8-0.6,1.3c0,0.5,0.2,0.9,0.5,1.2l3.7,3.7c0.3,0.3,0.7,0.5,1.2,0.5
				c0.5,0,0.9-0.2,1.2-0.5l2.6-2.6C672.8,22.6,673,22.2,673,21.7L673,21.7z M660.4,9.1c0-0.5-0.2-0.9-0.5-1.2l-3.7-3.7
				c-0.3-0.3-0.7-0.5-1.2-0.5c-0.5,0-0.9,0.2-1.2,0.5l-2.6,2.6c-0.3,0.3-0.5,0.7-0.5,1.2c0,0.5,0.2,0.9,0.5,1.2l3.7,3.7
				c0.3,0.3,0.7,0.5,1.2,0.5c0.5,0,0.9-0.2,1.3-0.6c0,0-0.1-0.1-0.3-0.3s-0.3-0.3-0.4-0.4c-0.1-0.1-0.2-0.2-0.3-0.3
				c-0.1-0.2-0.2-0.3-0.2-0.5c0-0.1-0.1-0.3-0.1-0.5c0-0.5,0.2-0.9,0.5-1.2c0.3-0.3,0.7-0.5,1.2-0.5c0.2,0,0.3,0,0.5,0.1
				c0.1,0,0.3,0.1,0.5,0.2s0.3,0.2,0.3,0.3c0.1,0.1,0.2,0.2,0.4,0.4c0.2,0.2,0.3,0.3,0.3,0.3C660.2,10.1,660.4,9.6,660.4,9.1
				L660.4,9.1z M676.4,21.7c0,1.4-0.5,2.6-1.5,3.6l-2.6,2.6c-1,1-2.2,1.5-3.6,1.5c-1.4,0-2.7-0.5-3.6-1.5l-3.7-3.7
				c-1-1-1.5-2.2-1.5-3.6c0-1.5,0.5-2.7,1.6-3.7l-1.6-1.6c-1,1-2.3,1.6-3.7,1.6c-1.4,0-2.6-0.5-3.6-1.5l-3.7-3.7
				c-1-1-1.5-2.2-1.5-3.6s0.5-2.6,1.5-3.6l2.6-2.6c1-1,2.2-1.5,3.6-1.5c1.4,0,2.7,0.5,3.6,1.5l3.7,3.7c1,1,1.5,2.2,1.5,3.6
				c0,1.5-0.5,2.7-1.6,3.7l1.6,1.6c1-1,2.3-1.6,3.7-1.6c1.4,0,2.6,0.5,3.6,1.5l3.7,3.7C675.9,19.1,676.4,20.3,676.4,21.7z"/>
		</g>
	</g>
	<g transform="translate(693 0)">
		<g id="icon-pinterest">
			<path class="st0" d="M720.4,16c0,2.5-0.6,4.8-1.8,6.9c-1.2,2.1-2.9,3.8-5,5s-4.4,1.8-6.9,1.8c-1.3,0-2.6-0.2-3.9-0.6
				c0.7-1.1,1.2-2.1,1.4-2.9c0.1-0.4,0.4-1.7,1-3.8c0.2,0.5,0.7,0.9,1.3,1.2c0.6,0.3,1.3,0.5,2,0.5c1.4,0,2.7-0.4,3.9-1.2
				c1.1-0.8,2-1.9,2.6-3.4c0.6-1.4,0.9-3,0.9-4.8c0-1.4-0.4-2.6-1.1-3.8s-1.7-2.2-3.1-2.9s-2.9-1.1-4.6-1.1c-1.2,0-2.4,0.2-3.5,0.5
				c-1.1,0.3-2,0.8-2.8,1.4s-1.4,1.2-1.9,2s-0.9,1.5-1.2,2.3c-0.3,0.8-0.4,1.6-0.4,2.4c0,1.2,0.2,2.3,0.7,3.3s1.2,1.6,2.1,2
				c0.4,0.1,0.6,0,0.7-0.4c0-0.1,0.1-0.3,0.1-0.6s0.1-0.5,0.1-0.5c0.1-0.3,0-0.5-0.2-0.8c-0.6-0.7-0.9-1.6-0.9-2.7
				c0-1.8,0.6-3.3,1.9-4.6c1.2-1.3,2.9-1.9,4.9-1.9c1.8,0,3.2,0.5,4.2,1.5c1,1,1.5,2.2,1.5,3.8c0,2-0.4,3.7-1.2,5.2
				c-0.8,1.4-1.9,2.1-3.1,2.1c-0.7,0-1.3-0.3-1.8-0.8c-0.4-0.5-0.6-1.1-0.4-1.9c0.1-0.4,0.3-1,0.5-1.7c0.2-0.7,0.4-1.3,0.5-1.8
				c0.1-0.5,0.2-1,0.2-1.3c0-0.6-0.2-1.1-0.5-1.5s-0.8-0.6-1.4-0.6c-0.7,0-1.4,0.3-1.9,1c-0.5,0.7-0.8,1.5-0.8,2.5
				c0,0.9,0.1,1.6,0.4,2.2l-1.8,7.5c-0.2,0.8-0.3,1.9-0.2,3.2c-2.5-1.1-4.4-2.8-5.9-5c-1.5-2.3-2.3-4.8-2.3-7.6
				c0-2.5,0.6-4.8,1.8-6.9c1.2-2.1,2.9-3.8,5-5s4.4-1.8,6.9-1.8c2.5,0,4.8,0.6,6.9,1.8s3.8,2.9,5,5C719.8,11.2,720.4,13.5,720.4,16
				L720.4,16z"/>
		</g>
	</g>
	<g transform="translate(0 48)">
		<g id="icon-google-plus">
			<path class="st0" d="M15.6,74.2c0-0.2,0-0.5-0.1-0.7c-0.1-0.2-0.1-0.4-0.2-0.6c-0.1-0.2-0.2-0.4-0.3-0.6
				c-0.1-0.2-0.3-0.4-0.4-0.5c-0.1-0.1-0.3-0.3-0.5-0.5c-0.2-0.2-0.4-0.4-0.5-0.5c-0.1-0.1-0.3-0.3-0.6-0.5
				c-0.3-0.2-0.5-0.3-0.6-0.4c-0.1-0.1-0.3-0.2-0.6-0.4c-0.3-0.2-0.5-0.3-0.5-0.4c-0.2,0-0.5,0-0.9,0c-0.6,0-1.3,0-1.9,0.1
				c-0.6,0.1-1.3,0.2-1.9,0.4C6.1,69.7,5.5,70,5,70.4c-0.5,0.3-0.9,0.8-1.2,1.3s-0.5,1.2-0.5,1.9c0,0.8,0.2,1.5,0.6,2.2
				s1,1.1,1.7,1.5s1.4,0.6,2.2,0.8c0.8,0.2,1.5,0.3,2.3,0.3c0.7,0,1.4-0.1,2-0.2c0.6-0.1,1.2-0.4,1.8-0.7c0.6-0.3,1-0.8,1.3-1.3
				C15.5,75.6,15.6,74.9,15.6,74.2z M13.5,58.8c0-0.7-0.1-1.5-0.3-2.3c-0.2-0.8-0.5-1.6-0.8-2.3c-0.4-0.7-0.9-1.4-1.5-1.9
				c-0.6-0.5-1.3-0.7-2.1-0.7c-1.1,0-2,0.4-2.6,1.2c-0.6,0.8-0.9,1.8-0.9,2.9c0,0.6,0.1,1.1,0.2,1.8c0.1,0.6,0.3,1.2,0.6,1.9
				c0.3,0.6,0.6,1.2,1,1.7c0.4,0.5,0.8,0.9,1.4,1.2s1.1,0.5,1.7,0.5c1.2,0,2-0.4,2.5-1.1C13.2,60.9,13.5,60,13.5,58.8z M11.2,50.3
				H19l-2.4,1.4h-2.4c0.8,0.5,1.5,1.3,2,2.2c0.5,1,0.7,2,0.7,3c0,0.9-0.1,1.7-0.4,2.3c-0.3,0.7-0.6,1.2-1,1.7
				c-0.4,0.4-0.8,0.8-1.2,1.2c-0.4,0.4-0.7,0.7-1,1.1c-0.3,0.4-0.4,0.8-0.4,1.2c0,0.3,0.1,0.6,0.3,0.9c0.2,0.3,0.5,0.6,0.8,0.9
				c0.3,0.3,0.7,0.6,1,0.9c0.4,0.3,0.8,0.6,1.1,1c0.4,0.4,0.7,0.8,1,1.2s0.6,0.9,0.8,1.5c0.2,0.6,0.3,1.2,0.3,1.9
				c0,1.9-0.8,3.6-2.5,5c-1.8,1.6-4.3,2.3-7.5,2.3c-0.7,0-1.4-0.1-2.1-0.2s-1.4-0.3-2.2-0.6s-1.4-0.6-1.9-1c-0.6-0.4-1-0.9-1.4-1.6
				S0,75.2,0,74.4c0-0.7,0.2-1.5,0.7-2.4c0.4-0.8,1-1.4,1.7-2c0.8-0.6,1.6-1,2.6-1.3s1.9-0.5,2.8-0.6s1.8-0.2,2.7-0.2
				c-0.8-1-1.1-1.9-1.1-2.7c0-0.1,0-0.3,0-0.4c0-0.1,0.1-0.3,0.1-0.3c0-0.1,0.1-0.2,0.1-0.4c0.1-0.2,0.1-0.3,0.1-0.4
				c-0.5,0.1-0.9,0.1-1.2,0.1c-1.8,0-3.3-0.6-4.6-1.8c-1.3-1.2-1.9-2.6-1.9-4.4c0-1.7,0.6-3.2,1.7-4.5s2.5-2.2,4.2-2.5
				C8.9,50.4,10.1,50.3,11.2,50.3L11.2,50.3z M29.7,54.9v2.3h-4.6v4.6h-2.3v-4.6h-4.6v-2.3h4.6v-4.6h2.3v4.6
				C25.1,54.9,29.7,54.9,29.7,54.9z"/>
		</g>
	</g>
	<g transform="translate(48 48)">
		<g id="icon-linkedin">
			<path class="st0" d="M54.2,59.2v17.7h-5.9V59.2C48.3,59.2,54.2,59.2,54.2,59.2z M54.6,53.7c0,0.9-0.3,1.6-0.9,2.2
				c-0.6,0.6-1.4,0.9-2.4,0.9h0c-1,0-1.8-0.3-2.4-0.9S48,54.6,48,53.7c0-0.9,0.3-1.6,0.9-2.2c0.6-0.6,1.4-0.9,2.4-0.9
				c1,0,1.8,0.3,2.4,0.9C54.3,52.1,54.6,52.8,54.6,53.7z M75.4,66.7v10.1h-5.9v-9.5c0-1.2-0.2-2.2-0.7-2.9c-0.5-0.7-1.2-1.1-2.3-1.1
				c-0.8,0-1.4,0.2-1.9,0.6c-0.5,0.4-0.9,0.9-1.1,1.5c-0.1,0.4-0.2,0.8-0.2,1.4v9.9h-5.9c0-4.8,0-8.6,0-11.6s0-4.7,0-5.3l0-0.9h5.9
				v2.6h0c0.2-0.4,0.5-0.7,0.7-1s0.6-0.6,1-0.9s0.9-0.6,1.6-0.8s1.3-0.3,2-0.3c2,0,3.7,0.7,4.9,2S75.4,64.1,75.4,66.7L75.4,66.7z"/>
		</g>
	</g>
	<g transform="translate(96 48)">
		<g id="icon-youtube">
			<path class="st0" d="M118.9,64c0-0.4-0.2-0.8-0.5-1l-9.1-5.7c-0.4-0.2-0.8-0.2-1.2,0c-0.4,0.2-0.6,0.5-0.6,1v11.4
				c0,0.5,0.2,0.8,0.6,1c0.2,0.1,0.4,0.1,0.6,0.1c0.2,0,0.4-0.1,0.6-0.2l9.1-5.7C118.7,64.8,118.9,64.4,118.9,64L118.9,64z M128,64
				c0,1.1,0,2,0,2.7s-0.1,1.5-0.2,2.4c-0.1,1-0.2,1.9-0.4,2.6c-0.2,0.9-0.6,1.6-1.2,2.2c-0.6,0.6-1.4,0.9-2.2,1
				c-2.6,0.3-6.6,0.4-12,0.4c-5.3,0-9.3-0.1-12-0.4c-0.8-0.1-1.6-0.4-2.2-1c-0.6-0.6-1.1-1.3-1.2-2.2c-0.2-0.8-0.3-1.7-0.4-2.6
				S96,67.3,96,66.7s0-1.5,0-2.7c0-1.1,0-2,0-2.7s0.1-1.5,0.2-2.4c0.1-1,0.2-1.9,0.4-2.6c0.2-0.9,0.6-1.6,1.2-2.2
				c0.6-0.6,1.4-0.9,2.2-1c2.6-0.3,6.6-0.4,12-0.4c5.3,0,9.3,0.1,12,0.4c0.8,0.1,1.6,0.4,2.2,1c0.6,0.6,1.1,1.3,1.2,2.2
				c0.2,0.8,0.3,1.7,0.4,2.6c0.1,1,0.1,1.8,0.2,2.4C128,62,128,62.9,128,64z"/>
		</g>
	</g>
	<g transform="translate(144 48)">
		<g id="icon-stack-overflow">
			<path class="st0" d="M160.6,73v2.7l-12.6,0V73L160.6,73z M164.9,66.8v12.5l0,0.6v0L144,80V66.8h2.2v11h16.6v-11
				C162.7,66.8,164.9,66.8,164.9,66.8z M148.3,68.4l12.6,1.2l-0.2,2.7l-12.6-1.2L148.3,68.4z M149.5,62.8l12.2,3.3l-0.7,2.6
				l-12.2-3.3L149.5,62.8z M152.4,56.5l10.9,6.4l-1.4,2.3l-10.9-6.4L152.4,56.5z M158.9,50.6l7.1,10.4l-2.2,1.5l-7.1-10.4
				L158.9,50.6z M166.9,48l2.2,12.4l-2.7,0.5l-2.2-12.4L166.9,48z"/>
		</g>
	</g>
	<g transform="translate(192 48)">
		<g id="icon-skype">
			<path class="st0" d="M212.9,67c0-0.6-0.1-1.1-0.3-1.6c-0.2-0.5-0.5-0.9-0.9-1.2c-0.3-0.3-0.8-0.6-1.3-0.9s-1-0.5-1.5-0.6
				s-1-0.3-1.6-0.4l-1.9-0.4c-0.4-0.1-0.6-0.1-0.8-0.2c-0.2,0-0.4-0.1-0.6-0.2s-0.4-0.2-0.5-0.3s-0.2-0.2-0.3-0.4s-0.1-0.3-0.1-0.5
				c0-0.9,0.9-1.4,2.6-1.4c0.5,0,1,0.1,1.4,0.2c0.4,0.1,0.7,0.3,1,0.5s0.5,0.4,0.7,0.6s0.5,0.4,0.7,0.5c0.3,0.1,0.5,0.2,0.9,0.2
				c0.6,0,1-0.2,1.3-0.6c0.3-0.4,0.5-0.8,0.5-1.4c0-0.7-0.3-1.2-1-1.8c-0.7-0.5-1.5-0.9-2.5-1.2s-2.1-0.4-3.2-0.4
				c-0.8,0-1.6,0.1-2.4,0.3c-0.8,0.2-1.5,0.5-2.1,0.8c-0.7,0.4-1.2,0.9-1.6,1.6c-0.4,0.7-0.6,1.4-0.6,2.3c0,0.7,0.1,1.4,0.3,1.9
				c0.2,0.5,0.6,1,1,1.3c0.4,0.4,0.9,0.6,1.4,0.9c0.5,0.2,1.1,0.4,1.8,0.6l2.6,0.6c1.1,0.3,1.7,0.5,2,0.6c0.4,0.2,0.6,0.6,0.6,1.1
				c0,0.5-0.2,0.8-0.7,1.2s-1.1,0.5-1.9,0.5c-0.6,0-1.2-0.1-1.6-0.3c-0.5-0.2-0.9-0.4-1.2-0.7c-0.3-0.3-0.6-0.5-0.8-0.8
				s-0.5-0.5-0.8-0.7c-0.3-0.2-0.6-0.3-1-0.3c-0.6,0-1,0.2-1.3,0.5c-0.3,0.4-0.5,0.8-0.5,1.3c0,1.1,0.7,2,2.2,2.8
				c1.5,0.8,3.2,1.2,5.2,1.2c0.9,0,1.7-0.1,2.5-0.3s1.5-0.5,2.2-1c0.7-0.4,1.2-1,1.6-1.7C212.7,68.6,212.9,67.8,212.9,67L212.9,67z
				 M219.4,70.9c0,1.9-0.7,3.5-2,4.8s-3,2-4.8,2c-1.5,0-2.9-0.5-4.2-1.4c-0.9,0.2-1.8,0.3-2.7,0.3c-1.7,0-3.3-0.3-4.9-1
				s-2.9-1.6-4-2.7c-1.1-1.1-2-2.5-2.7-4c-0.7-1.6-1-3.2-1-4.9c0-0.9,0.1-1.8,0.3-2.7c-1-1.2-1.4-2.6-1.4-4.2c0-1.9,0.7-3.5,2-4.8
				c1.3-1.3,3-2,4.8-2c1.5,0,2.9,0.5,4.2,1.4c0.9-0.2,1.8-0.3,2.7-0.3c1.7,0,3.3,0.3,4.9,1c1.6,0.7,2.9,1.6,4,2.7
				c1.1,1.1,2,2.5,2.7,4c0.7,1.6,1,3.2,1,4.9c0,0.9-0.1,1.8-0.3,2.7C219,67.9,219.4,69.3,219.4,70.9z"/>
		</g>
	</g>
	<g transform="translate(240 48)">
		<g id="icon-vk">
			<path class="st0" d="M274.2,57.3c0.3,0.8-0.6,2.5-2.7,5.2c-0.3,0.4-0.7,0.9-1.2,1.5c-0.9,1.2-1.5,2-1.6,2.3
				c-0.2,0.5-0.1,1,0.2,1.4c0.2,0.2,0.7,0.7,1.4,1.5h0l0.1,0.1c1.7,1.6,2.8,2.9,3.4,3.9c0,0.1,0.1,0.1,0.1,0.2
				c0,0.1,0.1,0.2,0.1,0.5c0,0.2,0,0.4,0,0.6c0,0.2-0.2,0.3-0.4,0.5s-0.6,0.2-1.1,0.2l-4.6,0.1c-0.3,0.1-0.6,0-1-0.1
				c-0.4-0.1-0.7-0.2-0.9-0.4l-0.4-0.2c-0.4-0.2-0.8-0.6-1.2-1.1c-0.5-0.5-0.9-1-1.2-1.4s-0.7-0.8-1.1-1c-0.4-0.3-0.7-0.4-1-0.3
				c0,0-0.1,0-0.1,0.1s-0.2,0.1-0.3,0.3c-0.1,0.1-0.3,0.3-0.4,0.5c-0.1,0.2-0.2,0.5-0.3,0.9S260,73.5,260,74c0,0.2,0,0.3-0.1,0.5
				c0,0.1-0.1,0.3-0.1,0.3l-0.1,0.1c-0.2,0.2-0.5,0.4-0.9,0.4h-2.1c-0.8,0-1.7-0.1-2.6-0.3c-0.9-0.2-1.7-0.6-2.3-0.9
				c-0.7-0.4-1.3-0.8-1.8-1.2c-0.6-0.4-1-0.7-1.3-1l-0.4-0.4c-0.1-0.1-0.3-0.3-0.5-0.5c-0.2-0.2-0.6-0.8-1.3-1.6
				c-0.6-0.8-1.3-1.7-1.9-2.7c-0.6-1-1.3-2.2-2.2-3.8c-0.8-1.6-1.6-3.2-2.3-4.9c-0.1-0.2-0.1-0.4-0.1-0.5c0-0.1,0-0.2,0.1-0.3
				l0.1-0.1c0.2-0.2,0.5-0.3,1-0.3l4.9,0c0.1,0,0.3,0.1,0.4,0.1c0.1,0.1,0.2,0.1,0.3,0.2l0.1,0.1c0.2,0.1,0.3,0.3,0.4,0.6
				c0.2,0.6,0.5,1.2,0.8,1.8c0.3,0.6,0.6,1.1,0.7,1.5l0.3,0.5c0.3,0.7,0.7,1.3,1,1.9s0.6,0.9,0.9,1.2s0.5,0.5,0.7,0.7
				c0.2,0.2,0.4,0.3,0.6,0.2c0.2,0,0.3,0,0.5-0.1c0,0,0.1,0,0.1-0.1c0,0,0.1-0.2,0.2-0.4c0.1-0.2,0.2-0.5,0.2-0.8
				c0.1-0.3,0.1-0.8,0.2-1.4c0.1-0.6,0.1-1.4,0-2.2c0-0.5-0.1-0.9-0.2-1.3c-0.1-0.4-0.2-0.7-0.2-0.8L253,58
				c-0.3-0.4-0.8-0.7-1.5-0.8c-0.2,0-0.1-0.2,0.1-0.4c0.2-0.2,0.4-0.4,0.7-0.5c0.6-0.3,2.1-0.5,4.3-0.4c1,0,1.8,0.1,2.4,0.2
				c0.2,0.1,0.4,0.1,0.6,0.2c0.2,0.1,0.3,0.2,0.4,0.4c0.1,0.2,0.1,0.4,0.2,0.6c0,0.2,0.1,0.5,0.1,0.8s0,0.7,0,1c0,0.3,0,0.7,0,1.3
				c0,0.5,0,1,0,1.5c0,0.1,0,0.4,0,0.8s0,0.7,0,0.9c0,0.2,0,0.4,0.1,0.7c0,0.3,0.1,0.5,0.2,0.7s0.2,0.3,0.4,0.4c0.1,0,0.2,0,0.3,0.1
				c0.1,0,0.3,0,0.5-0.2c0.2-0.2,0.4-0.4,0.7-0.6s0.6-0.7,0.9-1.2c0.4-0.5,0.8-1.2,1.2-1.9c0.7-1.2,1.4-2.6,1.9-4
				c0-0.1,0.1-0.2,0.2-0.3c0.1-0.1,0.1-0.2,0.2-0.2l0.1-0.1l0.1,0c0,0,0.1,0,0.2-0.1c0.2,0,0.3,0,0.4,0l5.1,0c0.5-0.1,0.8,0,1.1,0
				c0.3,0.1,0.5,0.2,0.6,0.3L274.2,57.3z"/>
		</g>
	</g>
	<g transform="translate(290 48)">
		<g id="icon-arrow-down">
			<path class="st0" d="M294.1,57c-0.4-0.4-1.1-0.4-1.6,0c-0.4,0.4-0.4,1.1,0,1.6L305.2,71c0.4,0.4,1.1,0.4,1.6,0l12.7-12.5
				c0.4-0.4,0.4-1.1,0-1.5c-0.4-0.4-1.1-0.4-1.6,0L306,68.4L294.1,57L294.1,57z"/>
		</g>
	</g>
	<g transform="translate(338 48)">
		<g id="icon-direction">
			<path class="st0" d="M366,52.3h-10.4l3.1,3.1l-7.4,7.4h0v12.9h5.6V65.1l5.7-5.7l3.3,3.3V52.3z M350.8,65.1l-8.8-8.8l4-4l7.6,7.6
				l-2.8,2.8h0V65.1z"/>
		</g>
	</g>
</g>
<path d="M395.8,46c-1.6,0.1-2.7,0.3-3.6,0.7c-1,0.4-1.8,0.9-2.7,1.7s-1.3,1.7-1.7,2.7c-0.4,1-0.6,2-0.7,3.6
	c-0.1,1.6-0.1,2.1-0.1,6.2c0,4.1,0,4.6,0.1,6.2c0.1,1.6,0.3,2.7,0.7,3.6c0.4,1,0.9,1.8,1.7,2.7c0.8,0.8,1.7,1.3,2.7,1.7
	c1,0.4,2,0.6,3.6,0.7s2.1,0.1,6.2,0.1s4.6,0,6.2-0.1c1.6-0.1,2.7-0.3,3.6-0.7c1-0.4,1.8-0.9,2.7-1.7c0.8-0.8,1.3-1.7,1.7-2.7
	c0.4-1,0.6-2,0.7-3.6c0.1-1.6,0.1-2.1,0.1-6.2c0-4.1,0-4.6-0.1-6.2c-0.1-1.6-0.3-2.7-0.7-3.6c-0.4-1-0.9-1.8-1.7-2.7
	c-0.8-0.8-1.7-1.3-2.7-1.7c-1-0.4-2-0.6-3.6-0.7s-2.1-0.1-6.2-0.1C397.9,45.9,397.4,45.9,395.8,46 M396,73.1
	c-1.5-0.1-2.3-0.3-2.8-0.5c-0.7-0.3-1.2-0.6-1.7-1.1s-0.9-1-1.1-1.7c-0.2-0.5-0.5-1.3-0.5-2.8c-0.1-1.6-0.1-2.1-0.1-6.1
	s0-4.5,0.1-6.1c0.1-1.5,0.3-2.3,0.5-2.8c0.3-0.7,0.6-1.2,1.1-1.7c0.5-0.5,1-0.9,1.7-1.1c0.5-0.2,1.3-0.5,2.8-0.5
	c1.6-0.1,2.1-0.1,6.1-0.1c4,0,4.5,0,6.1,0.1c1.5,0.1,2.3,0.3,2.8,0.5c0.7,0.3,1.2,0.6,1.7,1.1c0.5,0.5,0.9,1,1.1,1.7
	c0.2,0.5,0.5,1.3,0.5,2.8c0.1,1.6,0.1,2.1,0.1,6.1s0,4.5-0.1,6.1c-0.1,1.5-0.3,2.3-0.5,2.8c-0.3,0.7-0.6,1.2-1.1,1.7s-1,0.9-1.7,1.1
	c-0.5,0.2-1.3,0.5-2.8,0.5c-1.6,0.1-2.1,0.1-6.1,0.1C398,73.2,397.5,73.2,396,73.1 M408.2,52.9c0,1,0.8,1.8,1.8,1.8
	c1,0,1.8-0.8,1.8-1.8c0-1-0.8-1.8-1.8-1.8c0,0,0,0,0,0C409,51.1,408.2,51.9,408.2,52.9 M394.3,60.9c0,4.3,3.5,7.7,7.7,7.7
	c4.3,0,7.7-3.5,7.7-7.7c0-4.3-3.5-7.7-7.7-7.7C397.7,53.2,394.3,56.7,394.3,60.9 M397,60.9c0-2.8,2.2-5,5-5c2.8,0,5,2.2,5,5
	c0,2.8-2.2,5-5,5C399.2,65.9,397,63.7,397,60.9C397,60.9,397,60.9,397,60.9"/>
</svg>
